<svg xmlns="http://www.w3.org/2000/svg" viewBox="0 0 220.82 248.16"><title>Asset 2game icon</title><g id="Layer_2" data-name="Layer 2"><g id="Layer_1-2" data-name="Layer 1"><path d="M101.6,157c-27-15.55-52.73-30.42-79.69-46,0,4.53,0,8.06,0,11.6,0,16.67.14,33.33,0,50,0,3.44,1.05,5.34,4.09,7,16.1,9.08,32.06,18.43,48.07,27.67,1.53.87,3.12,1.63,5.56,2.91,0-6.68.26-12.44-.17-18.16-.11-1.46-2.15-3.14-3.7-4.06-10.33-6.1-20.7-12.12-31.18-17.94-3.41-1.89-5.09-4-4.82-8.19.41-6.28.11-12.61.11-19.75,2.61,1.36,4.63,2.32,6.57,3.43,17,9.82,34.08,19.58,51,29.59,1.81,1.07,3.92,3.56,3.94,5.41.27,21.66.17,43.33.15,65a14.22,14.22,0,0,1-.46,2.32,37.24,37.24,0,0,1-3.69-1.6Q50.4,219.22,3.51,192c-1.63-1-3.36-3.43-3.37-5.2-.19-37-.14-74-.12-111a13.65,13.65,0,0,1,.37-2A28.78,28.78,0,0,1,3.9,75.25C34.78,93,65.6,110.94,96.58,128.56c4.13,2.35,5.37,5.08,5.1,9.54C101.34,144,101.6,150,101.6,157Z"/><path d="M119.58,248.16c-.17-2-.4-3.45-.4-4.87,0-35.51.06-71-.1-106.52,0-3.87,1.25-5.94,4.56-7.84Q169.38,102.77,215,76.3c1.55-.89,3.14-1.73,5.72-3.16,0,8.59.21,16.31-.19,24-.07,1.34-2.53,2.82-4.15,3.77q-35.43,20.58-71,40.94c-3.13,1.79-4.37,3.77-4.34,7.44.19,20,.09,40,.09,60.63A36.28,36.28,0,0,0,145,208.3c16.9-9.72,33.81-19.43,50.63-29.28,1.36-.8,2.94-2.56,3-4,.35-5.61.15-11.25.15-18.09l-39.7,22.81c0-8.68-.07-16.53.1-24.38,0-.81,1.34-1.81,2.28-2.36Q190.18,136.4,219,119.87c.24-.14.62,0,1.36,0a32.86,32.86,0,0,1,.4,3.65c0,20.84-.06,41.68.07,62.51,0,3.11-1.09,4.76-3.7,6.26Q170.52,219,124,245.91C122.75,246.63,121.43,247.22,119.58,248.16Z"/><path d="M9.31,57.52c13.1-7.6,25.6-14.87,38.11-22.1C67,24.08,86.7,12.82,106.25,1.38c2.93-1.71,5.21-1.94,8.15-.06C120,4.9,125.8,8.09,132.28,11.88L53.15,57.64c4.81,2.8,8.9,5.2,13,7.58C79.71,73.07,93.23,81,106.86,88.66c1.51.86,4.1,1.54,5.36.83,18.27-10.28,36.41-20.82,55.46-31.8-5.94-3.42-11.09-6.64-16.51-9.33-1.15-.57-3.44.53-4.91,1.36-10.72,6.09-21.42,12.21-32,18.53-2.79,1.66-5,1.74-7.76,0C100.87,64.72,95,61.52,88.78,57.88c1.38-1,2.33-1.8,3.39-2.41,18.16-10.51,36.32-21,54.58-31.4,1.55-.87,4.32-1.26,5.73-.46,19.29,10.89,38.44,22,57.62,33.12.25.15.38.51.93,1.28-5,2.92-9.92,5.84-14.88,8.7Q155.28,90.35,114.38,114c-2.15,1.25-3.95,2.45-6.79.79q-47.92-27.91-96-55.56C11,58.86,10.52,58.41,9.31,57.52Z"/></g></g></svg>